<svg xmlns="http://www.w3.org/2000/svg" viewBox="0 0 900 1100"><defs><linearGradient id="b" x2=".9" y2="1"><stop stop-color="#e6dfd0"/><stop offset="1" stop-color="#c5c0ae"/></linearGradient><filter id="s"><feGaussianBlur stdDeviation="23"/></filter></defs><path fill="url(#b)" d="M0 0h900v1100H0z"/><circle cx="675" cy="208" r="160" fill="#f4ead0" opacity=".56"/><path d="M0 0h270v1100H0z" fill="#b9c3b4" opacity=".37"/><path d="M85 0v1100m76-1100v1100m72-1100v1100" stroke="#f8f3e6" stroke-width="6" opacity=".38"/><ellipse cx="461" cy="881" rx="310" ry="53" fill="#726653" opacity=".25" filter="url(#s)"/><path d="M95 752q370-69 710 0v294H95z" fill="#e7ddca"/><path d="M362 563q88-112 177 0l32 196H330z" fill="#a87851"/><ellipse cx="450" cy="564" rx="87" ry="22" fill="#dbbd8e"/><ellipse cx="450" cy="565" rx="61" ry="12" fill="#79604b"/><path d="M422 556q5-58 28-64 24 9 27 64" fill="#e5d9c1"/><path d="M419 492q31-23 61 0" fill="none" stroke="#7f745f" stroke-width="6"/><rect x="145" y="602" width="141" height="158" rx="5" fill="#76816b"/><path d="M158 620h115v121H158z" fill="#89937b"/><path d="M183 646h64m-64 18h55m-55 18h61m-61 18h38" stroke="#ddd6c5" stroke-width="4" opacity=".66"/><path d="M589 750q-14-99 61-99 71 6 71 99z" fill="#c8d0c0"/><path d="M609 694q35-23 82 0" fill="none" stroke="#879484" stroke-width="5"/><path d="M589 751h132" stroke="#7b8778" stroke-width="6"/><path d="M80 1024h738" stroke="#fff" stroke-width="3" opacity=".45"/></svg>
